<svg width="41" height="35" viewBox="0 0 41 35" fill="none" xmlns="http://www.w3.org/2000/svg">
<path d="M21.1136 11.5455H23.6364L29.5682 26.0341H29.7727L35.7045 11.5455H38.2273V29H36.25V15.7386H36.0795L30.625 29H28.7159L23.2614 15.7386H23.0909V29H21.1136V11.5455Z" fill="#FBFBFB"/>
<path d="M2.11364 23V5.54545H8.21591C9.43182 5.54545 10.4347 5.75568 11.2244 6.17614C12.0142 6.59091 12.6023 7.15057 12.9886 7.85511C13.375 8.55398 13.5682 9.32954 13.5682 10.1818C13.5682 10.9318 13.4347 11.5511 13.1676 12.0398C12.9063 12.5284 12.5597 12.9148 12.1278 13.1989C11.7017 13.483 11.2386 13.6932 10.7386 13.8295V14C11.2727 14.0341 11.8097 14.2216 12.3494 14.5625C12.8892 14.9034 13.3409 15.392 13.7045 16.0284C14.0682 16.6648 14.25 17.4432 14.25 18.3636C14.25 19.2386 14.0511 20.0256 13.6534 20.7244C13.2557 21.4233 12.6278 21.9773 11.7699 22.3864C10.9119 22.7955 9.79545 23 8.42045 23H2.11364ZM4.22727 21.125H8.42045C9.80114 21.125 10.7813 20.858 11.3608 20.3239C11.946 19.7841 12.2386 19.1307 12.2386 18.3636C12.2386 17.7727 12.0881 17.2273 11.7869 16.7273C11.4858 16.2216 11.0568 15.8182 10.5 15.517C9.94318 15.2102 9.28409 15.0568 8.52273 15.0568H4.22727V21.125ZM4.22727 13.2159H8.14773C8.78409 13.2159 9.35795 13.0909 9.86932 12.8409C10.3864 12.5909 10.7955 12.2386 11.0966 11.7841C11.4034 11.3295 11.5568 10.7955 11.5568 10.1818C11.5568 9.41477 11.2898 8.7642 10.7557 8.23011C10.2216 7.69034 9.375 7.42045 8.21591 7.42045H4.22727V13.2159Z" fill="#FBFBFB"/>
<g clip-path="url(#clip0_1_110)">
<path d="M9.55301 18.1247C9.55301 18.1247 10.3534 14.9789 10.6043 14.374C10.9268 13.56 11.4405 12.7681 12.002 12.0752C12.3126 11.6902 12.5874 11.3492 13.113 11.1952C13.3041 11.1402 13.4236 11.1732 13.6147 11.2172C13.6147 11.2172 14.6779 10.5683 15.2991 10.6783C15.9204 10.7883 16.7805 10.8433 16.7805 10.8433L21.547 10.3483C21.547 10.3483 23.5898 9.41339 24.7964 9.67737C26.003 9.94135 27.1498 10.2823 27.1498 10.2823L28.5714 11.0962C28.5714 11.0962 30.22 12.3721 30.7695 13.2961C31.3191 14.22 31.3549 16.1668 31.3549 16.1668L31.7252 18.1247C31.7252 18.1247 32.1553 19.0046 31.9283 19.3896C31.6894 19.7745 31.3191 19.8075 31.3191 19.8075C31.3191 19.8075 31.104 19.8735 30.8412 19.2136C30.5784 18.5426 29.5032 15.3969 29.0134 14.495C28.5236 13.593 27.544 12.1852 27.544 12.1852L26.2419 11.0633L25.4535 10.6563L24.5814 10.7663L23.6496 11.4702L23.1359 12.2622L22.7894 13.2191C22.7894 13.2191 24.211 13.769 24.2827 15.2099C24.3544 16.6508 24.1274 17.7837 24.1274 17.7837C24.1274 17.7837 23.7332 19.2466 23.4345 20.0935C23.1359 20.9404 22.5744 21.6114 22.5744 21.6114C22.5744 21.6114 22.0368 22.4583 20.8542 23.3712C19.6715 24.2952 19.0025 24.6911 19.0025 24.6911C18.7875 24.7791 18.5605 24.8781 18.3454 24.9661C17.8318 25.1861 17.3181 25.4061 16.7924 25.626C16.5655 25.725 16.3504 25.824 16.1234 25.912C15.8128 26.044 15.3828 25.89 15.1319 25.714C15.0005 25.615 14.881 25.4941 14.8332 25.3401C14.8094 25.2521 14.8332 25.1751 14.8452 25.0871C14.9169 24.7131 14.9885 24.3501 15.0602 23.9762C15.0602 23.9762 13.6386 24.0422 12.7307 24.0312C11.8108 24.0202 11.0941 24.0312 11.0941 24.0312C10.9746 24.0312 10.8432 24.0532 10.7118 24.0642C10.6043 24.0752 10.5326 24.0642 10.4251 24.0972C10.1981 24.1632 9.97112 24.2512 9.76804 24.3721C9.52911 24.5261 9.27824 24.6581 8.99153 24.7021C8.78845 24.7351 8.58536 24.7021 8.38227 24.6801C8.3106 24.6691 8.23892 24.6581 8.17919 24.6361C7.83275 24.4821 8.09556 23.8552 8.20308 23.6242C8.26281 23.5032 8.34644 23.4152 8.41811 23.2942C8.50174 23.1732 8.58536 23.0523 8.68093 22.9313C8.82429 22.7553 8.99153 22.6343 9.20657 22.5573C9.36187 22.5023 9.52911 22.4693 9.69636 22.4253C9.93529 22.3703 10.1742 22.3153 10.4131 22.2603C10.4131 22.2603 11.8945 20.9074 13.1369 19.4006C14.3793 17.8827 15.3469 15.9248 15.3469 15.9248L15.2753 15.4409L14.3434 16.4968C13.5192 17.2337 12.7427 17.9817 11.6794 18.4216C11.333 18.5646 10.9627 18.6746 10.5804 18.6306C10.4131 18.6086 10.2578 18.5646 10.1025 18.5096C9.98307 18.4766 9.87555 18.4326 9.75609 18.3886C9.62468 18.3446 9.60079 18.2677 9.55301 18.1247Z" fill="#FEDD4E"/>
<path d="M16.7566 13.571C16.7685 12.7461 16.7327 11.7672 16.5535 10.9643C16.4221 10.3813 15.6934 9.11641 15.3828 8.81943C15.0722 8.52245 13.101 6.7736 13.101 6.7736C13.101 6.7736 10.5923 4.76077 10.1981 4.3648C9.80388 3.96883 9.61274 3.36388 9.63664 3.04491C9.66053 2.72594 10.0786 2.18698 10.0786 2.18698C10.0786 2.18698 11.7631 1.945 13.0055 2.28597C14.2479 2.62695 15.3828 3.31989 15.3828 3.31989C15.3828 3.31989 18.2857 5.33272 19.2056 6.36663C20.1374 7.38955 20.8781 8.83043 20.8781 8.83043C21.2962 9.62236 21.5829 10.4803 21.9293 11.3052C22.0727 11.6242 22.3594 11.9762 22.3355 12.3391C22.3355 12.3721 22.0368 13.2081 22.1802 13.1641C21.5948 13.3401 21.0572 13.571 20.4958 13.791C19.9701 14 19.7193 13.824 19.1817 13.637C18.3693 13.3511 17.557 13.428 16.7566 13.67C16.7447 13.637 16.7566 13.604 16.7566 13.571Z" fill="#FFEC8F"/>
<path d="M16.7447 13.659C16.6849 13.703 16.6132 13.747 16.5655 13.802C16.7327 13.813 16.9 13.879 17.0553 13.945C17.2225 14.011 17.3539 14.066 17.4853 14.176C17.6167 14.286 17.7362 14.407 17.8437 14.539C18.0707 14.8139 18.2499 15.1329 18.2977 15.4849C18.4171 16.5518 18.453 17.7397 18.453 17.7397L17.9751 19.9835L16.7685 22.3263L15.5261 24.2291C15.5261 24.3611 14.8333 25.2961 14.8333 25.2961L15.7292 25.89L17.9871 25.1531C17.9871 25.1531 20.5674 23.7342 21.8576 22.4693C23.1478 21.2044 23.8646 19.0706 23.8646 19.0706L24.4022 15.9688C24.4022 15.9688 24.3305 14.6599 24.1274 14.374C23.9243 14.088 23.566 13.67 23.566 13.67L22.7058 13.0651L22.0488 13.2411L20.1971 13.934L20.1732 13.923C19.6834 13.725 19.1697 13.571 18.656 13.472C18.2977 13.4061 17.9273 13.3621 17.557 13.3951C17.2583 13.417 16.9836 13.505 16.7447 13.659Z" fill="#FFF5CB"/>
<path d="M13.5311 11.1842C13.5311 11.1842 14.439 11.6132 14.9408 12.5481C15.335 13.2741 15.6217 14.055 15.8487 14.8359C15.9323 14.638 16.0279 14.451 16.1354 14.275C16.2549 14.066 16.3982 13.857 16.6013 13.725C16.6252 13.703 16.661 13.692 16.6849 13.67C16.7805 13.56 16.7327 13.3511 16.7208 13.2191C16.7088 13.0541 16.6969 12.9001 16.6849 12.7351C16.661 12.4381 16.6491 12.1302 16.6252 11.8332C16.6252 11.7892 16.6252 11.7342 16.6132 11.6902L16.3504 10.7553C16.3504 10.7553 14.8094 10.3703 13.5311 11.1842Z" fill="#FFF5CB"/>
<path d="M21.547 10.3373L22.3235 12.3281L23.339 10.9863L24.0677 10.3923C24.0677 10.3923 25.7999 10.2713 26.66 10.3813C27.5202 10.5023 28.3206 10.9423 28.3206 10.9423C28.3206 10.9423 27.0065 9.77636 25.3101 9.75436C23.6257 9.74336 22.4311 9.87535 21.547 10.3373Z" fill="#FFF5CB"/>
<path d="M10.234 2.36298C10.234 2.36298 9.98308 3.06692 10.449 3.39689C10.9149 3.72686 14.1882 5.22274 15.2514 6.11366C16.3146 7.00459 18.7397 10.7773 18.7636 10.8543C18.7994 10.9313 21.0095 12.0642 20.448 9.99634C19.8865 7.91751 19.0742 6.54263 17.8676 5.29973C16.661 4.05683 14.2479 2.68195 14.2479 2.68195C14.2479 2.68195 11.3569 1.76902 10.234 2.36298Z" fill="#FFF0AD"/>
<path d="M9.77998 23.4592C9.8875 23.3822 10.9985 23.0083 10.9985 23.0083L11.321 23.9652L10.2339 24.1412L9.77998 23.4592Z" fill="#D2925D"/>
<path d="M11.4405 22.8653L11.333 23.9652L12.3245 24.0422L13.4594 24.1082L14.8333 23.9212L15.0961 23.9652L15.8367 22.3923L16.9836 19.6205L17.8079 16.5188C17.8079 16.5188 16.5296 19.0596 14.7377 20.7644C12.9458 22.4693 11.4405 22.8653 11.4405 22.8653Z" fill="#D2925D"/>
<path d="M10.7715 18.0367C10.7715 18.0367 11.2852 16.0128 12.1095 14.539C12.9338 13.0651 13.9612 12.1192 13.9612 12.1192C13.9612 12.1192 14.7855 12.9991 14.9886 13.648C15.1916 14.286 15.2514 15.0669 15.2514 15.0669C15.2514 15.0669 14.5704 15.9138 13.567 16.8158C12.5635 17.7177 11.0941 18.3776 10.7715 18.0367Z" fill="#D2925D"/>
<path d="M25.4654 10.6453C25.4654 10.6453 27.1976 11.4042 27.9741 12.5261C28.7387 13.648 29.5988 15.4959 29.5988 15.4959L30.4589 17.9597C30.4589 17.9597 29.8138 14.539 30.0528 14.066C30.3036 13.582 30.7218 14.55 30.7218 14.55C30.7218 14.55 30.1842 12.2951 29.2524 11.6242C28.3206 10.9533 27.5082 10.6013 27.5082 10.6013C27.5082 10.6013 25.8955 10.1503 25.4654 10.6453Z" fill="#D2925D"/>
<path d="M15.6695 8.66545C15.4306 8.32448 15.1677 8.00551 14.8213 7.68654C13.9851 6.9056 13.0533 6.20166 12.002 5.6627C14.0567 7.09259 16.3026 9.23741 16.6252 11.6792C16.7924 12.9991 16.7446 13.659 16.7446 13.659C16.7446 13.659 17.2464 13.2851 18.0587 13.3841C18.8591 13.4721 19.8865 13.758 19.8865 13.758L20.4838 13.78C20.4838 13.78 22.2996 13.3401 22.1682 13.1531C22.0368 12.9661 22.3474 12.1522 22.3474 12.1522C22.3474 12.1522 21.6545 12.9551 21.0931 13.0101C20.5316 13.0651 19.6356 12.9551 19.2534 12.1082C18.883 11.2612 18.5366 10.3373 18.0707 9.54538C17.4973 8.59946 16.6849 7.81852 15.8726 7.05959C15.4306 6.65262 14.9766 6.24566 14.5226 5.83869C15.6695 6.99359 16.8641 8.20349 17.2703 9.72137C17.3061 9.84236 17.33 9.97435 17.2942 10.0953C17.2583 10.2163 17.1628 10.3373 17.0194 10.3483C16.8283 10.3703 16.6969 10.2053 16.5893 10.0623C16.2668 9.57838 15.992 9.10542 15.6695 8.66545Z" fill="#E7BB82"/>
<path d="M23.4704 19.9835C22.9448 21.6994 21.547 23.0193 19.9701 23.9872C19.1697 24.4821 18.3096 24.8891 17.4256 25.2631C17.0553 25.4171 16.7447 25.659 16.3863 25.813C16.0637 25.945 15.6695 26 15.3469 25.868C15.1558 25.791 15.0005 25.648 14.9049 25.472C14.881 25.439 14.8691 25.3951 14.8691 25.3511C14.8691 25.2961 14.9169 25.2521 14.9408 25.2081C14.9886 25.1311 15.0244 25.0541 15.0602 24.9661C15.0841 24.9221 15.12 24.8781 15.1558 24.8341C15.2155 24.7571 15.2753 24.6801 15.335 24.6031C15.3947 24.5151 15.4664 24.4271 15.5381 24.3501C15.6098 24.2731 15.6814 24.2072 15.7412 24.1192C15.8487 23.9872 15.9562 23.8332 16.0279 23.6902C16.0637 23.6132 16.0876 23.5472 16.1354 23.4702C16.1832 23.3932 16.2429 23.3162 16.2907 23.2392C16.3982 23.0852 16.5057 22.9423 16.6252 22.7883C16.8402 22.4913 17.0553 22.1943 17.1867 21.8643C17.4734 21.1714 17.9034 20.3795 18.0468 19.6425C17.9393 20.2145 17.2106 22.1393 17.6884 22.6013C17.8795 22.7883 18.226 22.7003 18.4888 22.6013C19.7671 22.0953 20.3046 20.4785 20.7586 19.3786C20.8661 19.1146 21.4395 18.0367 21.3081 17.7947C21.547 18.2017 21.8935 18.5866 22.4669 18.3336C22.7775 18.2017 22.9925 17.9377 23.1837 17.6737C23.566 17.1347 23.9005 16.5518 24.1633 15.9578C24.2827 17.3107 23.8766 18.6636 23.4704 19.9835Z" fill="#E7BB82"/>
<path d="M18.5007 15.2539C19.0981 15.2099 19.6834 15.4409 20.2688 15.4959C20.3405 15.5069 20.4241 15.5069 20.4838 15.4629C20.5913 15.3859 20.5555 15.2319 20.5077 15.1219C20.4241 14.9239 20.3405 14.7259 20.1732 14.583C19.9701 14.396 19.6715 14.33 19.3967 14.264C19.0503 14.187 18.7158 14.11 18.3693 14.033C18.1424 13.978 17.8915 13.934 17.7003 14.044C18.0826 14.385 18.3574 14.8029 18.5007 15.2759V15.2539Z" fill="white"/>
<path d="M20.8781 14.187C21.2006 14.385 21.344 14.7479 21.4395 15.0889C21.4515 15.1329 21.4634 15.1879 21.4993 15.2319C21.5948 15.3309 21.786 15.2759 21.9054 15.1989C22.4191 14.9019 22.9448 14.517 23.554 14.506C23.554 14.143 23.2315 13.857 22.9089 13.659C22.7656 13.571 22.5983 13.4831 22.4191 13.5051C22.1324 13.538 21.9771 13.824 21.7262 13.956C21.5829 14.033 21.4037 14.055 21.2484 14.099C21.0931 14.154 20.9258 14.253 20.89 14.407L20.8781 14.187Z" fill="white"/>
<path d="M17.5331 4.78277C16.6132 4.08983 15.6814 3.41889 14.6421 2.89093C13.6267 2.36297 12.4798 1.97801 11.2972 2.011C10.8074 2.011 10.0548 2.022 9.79194 2.46197C9.13489 3.50688 10.3415 4.57379 11.106 5.20074C11.333 5.38772 11.56 5.56371 11.787 5.73969C12.898 6.64162 14.0329 7.57654 15.0483 8.55546C16.5057 9.96334 16.661 11.7122 16.6969 13.56C16.6969 13.593 16.7566 13.593 16.7566 13.56C16.7446 11.7892 16.6252 10.0623 15.2633 8.68745C14.439 7.85152 13.4833 7.10358 12.5874 6.33364C11.8945 5.73969 11.0941 5.24473 10.4609 4.58479C10.1384 4.24382 9.83972 3.85885 9.7322 3.40789C9.68442 3.2099 9.68442 2.98992 9.7561 2.79194C9.82777 2.56096 9.99502 2.29698 10.2817 2.25298C10.4729 2.21999 10.664 2.19799 10.8552 2.18699C11.2135 2.16499 11.5839 2.17599 11.9423 2.21999C13.1488 2.35198 14.2957 2.81394 15.323 3.39689C16.3624 3.99084 17.3061 4.72778 18.1901 5.50871C20.3883 7.44455 21.117 9.95234 22.2997 12.4161C22.3355 12.4931 22.455 12.4491 22.4311 12.3721C21.5948 9.53438 20.0418 6.66362 17.5331 4.78277Z" fill="black"/>
<path d="M16.5893 13.736C16.5416 13.791 16.4938 13.857 16.434 13.901C18.1543 14.044 18.5007 16.3318 18.3813 17.4867C18.2738 18.5426 17.8676 19.5765 17.4734 20.5555C16.7805 22.2273 15.8726 23.7782 14.8571 25.2961C14.8452 25.3181 14.893 25.3511 14.9049 25.3291C16.4938 23.2832 17.8198 20.8304 18.4052 18.3666C18.7397 16.9808 18.668 13.989 16.5893 13.736Z" fill="black"/>
<path d="M23.2315 13.3401C23.112 13.2631 22.9806 13.1751 22.8372 13.1311C21.9532 12.8671 21.0692 13.637 20.2568 13.835C20.2329 13.846 20.2449 13.879 20.2688 13.879C20.675 13.857 20.9975 13.747 21.3678 13.593C21.7621 13.4281 22.2519 13.1641 22.6939 13.2411C22.7775 13.2521 22.8731 13.2851 22.9567 13.3291C23.3748 13.5491 23.7212 13.923 23.9243 14.319C24.4141 15.2429 24.3305 16.3758 24.1513 17.3657C23.9124 18.6746 23.4584 19.9725 22.8014 21.1604C22.7297 21.2814 22.658 21.4134 22.5744 21.5344C21.8337 22.6563 20.6988 23.5032 19.5042 24.1962C18.883 24.5481 18.2499 24.8671 17.5928 25.1641C17.2703 25.3071 16.9597 25.4501 16.6371 25.593C16.3385 25.725 16.0159 25.967 15.6575 25.901C15.5022 25.879 15.3589 25.791 15.2394 25.714C15.12 25.637 14.9885 25.5601 14.9288 25.4391C14.8332 25.2741 14.8691 25.0761 14.9169 24.9001C14.9408 24.8231 14.9408 24.7571 14.9647 24.6801C14.9885 24.5811 15.0363 24.4931 15.0722 24.3941C15.2155 24.0092 15.3828 23.6352 15.5739 23.2722C15.7531 22.9093 15.9442 22.5683 16.1115 22.2053C16.2787 21.8314 16.434 21.4574 16.5774 21.0834C16.6969 20.7535 16.8163 20.4235 16.9358 20.0935C17.3181 19.0156 17.7959 17.8717 17.8318 16.7278C17.8556 16.1778 17.7123 15.4409 17.3778 14.9789C17.2822 14.8579 17.1986 14.737 17.0791 14.638C16.9597 14.539 16.8163 14.462 16.661 14.451C16.4699 14.44 16.2787 14.506 16.1473 14.627C16.004 14.748 15.9204 14.9019 15.8606 15.0669C15.9681 14.9349 16.0757 14.8139 16.2071 14.715C16.3504 14.627 16.5177 14.561 16.6969 14.583C16.8522 14.605 16.9955 14.682 17.0911 14.7919C17.4136 15.1109 17.5809 15.5729 17.6167 16.0018C17.7003 16.4308 17.6884 16.8378 17.6287 17.2667C17.545 17.8937 17.33 18.5096 17.1269 19.1036C17.0314 19.3896 16.9358 19.6645 16.8283 19.9505C16.5416 20.7205 16.231 21.4794 15.9084 22.2383C15.8248 22.4363 15.7412 22.6453 15.6456 22.8433C15.5859 22.9643 15.5381 23.0963 15.4783 23.2172C15.2514 23.6682 15.0124 24.0862 14.893 24.5701C14.8571 24.7461 14.8213 24.9221 14.8094 25.0981C14.7974 25.2851 14.8452 25.4391 14.9647 25.593C15.2872 26 15.8845 26.099 16.3863 25.934C17.0552 25.714 17.7123 25.4501 18.3454 25.1421C19.6117 24.5261 20.7825 23.7342 21.7382 22.7553C22.5386 21.9414 23.1717 20.9954 23.5659 19.9615C23.6496 19.7415 23.7212 19.5326 23.7929 19.3126C24.3902 17.4977 25.2145 14.649 23.2315 13.3401Z" fill="black"/>
<path d="M9.56496 18.3226C10.5565 19.0156 11.787 18.5866 12.6949 18.0037C13.2444 17.6517 13.7342 17.2227 14.2001 16.7828C14.4151 16.5738 14.6182 16.3648 14.8213 16.1558C14.9886 15.9688 15.1439 15.7269 15.335 15.5619C15.335 15.4739 15.3469 15.3859 15.3469 15.3089C15.2155 15.5399 15.0005 15.7159 14.8213 15.9138C14.6421 16.0898 14.4749 16.2768 14.2957 16.4528C13.9014 16.8488 13.4833 17.2447 13.0413 17.5967C12.1095 18.3226 10.8074 18.9826 9.64858 18.2567C9.57691 18.2017 9.50523 18.2787 9.56496 18.3226Z" fill="black"/>
<path d="M12.4918 11.4592C12.3245 11.6132 12.1692 11.7892 12.0378 11.9542C11.8706 12.1522 11.7033 12.3501 11.56 12.5591C11.2613 12.9771 11.0105 13.4171 10.7954 13.868C10.1384 15.2539 9.81583 16.7498 9.52912 18.2347C9.51718 18.2787 9.58886 18.2897 9.6008 18.2457C9.92335 16.7388 10.2578 15.2099 10.9507 13.791C11.1658 13.3401 11.4286 12.9111 11.7153 12.4931C12.0139 12.0752 12.3365 11.6132 12.8143 11.3602C13.7342 10.8543 14.5465 12.0092 14.9288 12.6361C15.3828 13.3951 15.6934 14.143 15.8367 14.9899C15.8487 14.9459 15.8726 14.8909 15.8845 14.8469C15.8606 14.715 15.8248 14.583 15.789 14.451C15.5261 13.5161 15.12 12.5261 14.4629 11.7562C14.2121 11.4592 13.8656 11.1402 13.4475 11.0963C13.0533 11.0523 12.7546 11.2282 12.4918 11.4592Z" fill="black"/>
<path d="M13.4714 11.2062C14.3912 10.8543 15.323 10.4583 16.3265 10.7773C16.3863 10.7993 16.4221 10.7223 16.3743 10.7003C15.3589 10.3703 14.3673 10.7443 13.4594 11.1842C13.4475 11.1952 13.4594 11.2172 13.4714 11.2062Z" fill="black"/>
<path d="M12.0856 11.9652C13.5072 10.9973 14.5824 12.9881 14.9647 13.835C15.323 14.638 15.4783 15.3969 15.2155 16.2438C15.2036 16.2768 15.2753 16.2988 15.2872 16.2658C15.8248 14.9129 14.1762 10.4473 12.0737 11.9432C12.0498 11.9542 12.0617 11.9762 12.0856 11.9652Z" fill="black"/>
<path d="M9.25435 22.9863C9.50522 23.2062 9.69636 23.4482 9.86361 23.7342C9.95918 23.8882 10.0786 24.0642 10.0428 24.2401C10.1264 24.2071 10.21 24.1852 10.3056 24.1632C10.0189 23.9322 9.94723 23.5472 9.67247 23.2942C9.52911 23.1952 9.3977 23.0852 9.25435 22.9863Z" fill="black"/>
<path d="M10.1145 24.2512C11.775 23.8552 13.4355 24.5481 15.0602 24.0642C15.1438 24.0422 15.1558 23.8992 15.2036 23.8332C14.8571 23.9212 14.5226 23.9872 14.1643 24.0092C13.4594 24.0422 12.7665 23.9322 12.0737 23.8882C11.3927 23.8552 10.6998 23.8882 10.0906 24.2072C10.0547 24.2182 10.0906 24.2622 10.1145 24.2512Z" fill="black"/>
<path d="M26.9587 10.4363C24.9517 10.0953 22.9089 11.2832 22.8253 13.2411C22.8253 13.2961 22.9209 13.2961 22.9209 13.2411C22.9806 12.7461 23.1239 12.2842 23.4226 11.8662C23.6735 11.5142 24.008 11.1952 24.3902 10.9643C24.7725 10.7333 25.2743 10.6783 25.7282 10.6233C26.1344 10.5683 26.5406 10.5903 26.9467 10.5573C27.0184 10.5353 27.0184 10.4473 26.9587 10.4363Z" fill="black"/>
<path d="M21.6068 10.3483C24.6053 9.16041 27.6994 9.73236 29.5749 11.9652C29.6107 12.0092 29.6944 11.9542 29.6585 11.9102C27.8905 9.67737 24.4978 8.96243 21.5948 10.3043C21.559 10.3153 21.5709 10.3593 21.6068 10.3483Z" fill="black"/>
<path d="M10.449 3.50688C10.8313 3.92484 11.4644 4.23282 11.9303 4.48579C12.5993 4.84876 13.2802 5.16774 13.9373 5.53071C14.5585 5.87168 15.1916 6.23465 15.6695 6.72961C15.7173 6.7736 15.7531 6.8176 15.8009 6.8616C15.5261 6.53162 15.1916 6.12466 14.8094 5.90468C14.3912 5.6627 13.9851 5.38772 13.555 5.15674C12.9457 4.83776 12.3245 4.55179 11.7153 4.24381C11.1419 3.94684 10.4012 3.61687 10.1384 3.01192C10.2101 3.1989 10.3176 3.36389 10.449 3.50688Z" fill="black"/>
<path d="M16.0279 7.10358C16.5296 7.71953 17.0194 8.33548 17.4734 8.99542C18.3574 10.2823 18.9547 11.6572 19.4803 13.0871C19.5042 13.1641 19.5401 13.2411 19.564 13.3291C19.3609 12.3391 19.0383 11.3822 18.5724 10.4693C18.2379 9.80935 17.8437 9.18241 17.4017 8.58846C17.1867 8.30248 16.9477 8.0385 16.7208 7.77452C16.6013 7.63154 16.4699 7.48855 16.3265 7.35656C16.1951 7.23557 16.0279 7.11458 15.9204 6.98259C15.9681 7.02659 15.992 7.05958 16.0279 7.10358Z" fill="black"/>
<path d="M17.1269 24.6581C18.1782 23.7232 19.1817 22.7003 19.7551 21.4354C19.767 21.4024 19.7193 21.3694 19.6954 21.4134C19.0264 22.6783 18.0587 23.5692 17.0791 24.6251C17.0672 24.6581 17.103 24.6801 17.1269 24.6581Z" fill="#FFF5CB"/>
<path d="M29.9572 12.1412C29.0732 11.2172 27.8547 10.5353 26.5406 10.2933C25.9194 10.1723 25.1787 10.1283 24.5456 10.2273C24.3903 10.2493 24.2469 10.2933 24.1035 10.3593C23.6496 10.5573 23.2793 10.9093 22.9806 11.2612C22.5027 11.8222 22.1324 12.5261 22.0966 13.2521C22.0966 13.2961 22.1682 13.2961 22.1802 13.2521C22.3594 12.6911 22.5147 12.1742 22.8611 11.6902C23.2315 11.1732 23.8646 10.5463 24.5575 10.4473C25.1907 10.3593 25.8955 10.4143 26.5286 10.5243C27.8308 10.7663 29.0134 11.4152 29.8736 12.3391C30.1125 12.5921 30.3275 12.8781 30.5067 13.1751C31.1877 14.264 31.104 15.5179 31.3191 16.7058C31.3669 17.0028 31.4385 17.2887 31.4983 17.5857C31.5938 17.9927 31.6775 18.3996 31.785 18.8176C31.8328 19.0046 31.8805 19.2026 31.8328 19.3896C31.785 19.5875 31.6177 19.7085 31.4027 19.6865C31.1757 19.6645 31.0801 19.5215 30.9726 19.3456C30.7337 18.9386 30.6859 18.4546 30.5426 18.0147C30.3634 17.4427 30.1722 16.8708 29.9691 16.2988C29.1687 14.099 27.9861 11.5912 25.5132 10.6123C25.4654 10.5903 25.4415 10.6563 25.4774 10.6673C28.1294 11.9982 29.1329 14.7259 29.993 17.2117C30.1722 17.7287 30.3514 18.2567 30.5426 18.7626C30.6859 19.1586 30.7934 19.6975 31.2713 19.8625C31.785 20.0495 31.9881 19.4666 31.9881 19.1036C32 18.3116 31.6058 17.4647 31.4744 16.6948C31.343 15.8699 31.343 15.0229 31.1399 14.209C30.9487 13.4391 30.5187 12.7241 29.9572 12.1412Z" fill="black"/>
<path d="M20.5674 14.198C20.5197 14.099 20.4599 14.011 20.3883 13.934C20.3644 13.912 20.3405 13.89 20.3046 13.868C20.233 13.824 20.1493 13.802 20.0657 13.78C19.767 13.692 19.4684 13.615 19.1697 13.5381C18.3574 13.3511 17.4495 13.2301 16.6969 13.626C15.992 14 15.8606 14.8579 15.5142 15.4849C15.3708 15.7489 15.2633 16.0238 15.12 16.2768C14.7855 16.8378 14.451 17.3987 14.0926 17.9487C13.5431 18.7846 12.9457 19.5765 12.2768 20.3465C11.9423 20.7315 11.5958 21.1054 11.2374 21.4684C11.0582 21.6554 10.879 21.8424 10.6879 22.0183C10.4968 22.1833 10.3176 22.2493 10.0667 22.3263C9.85167 22.3923 9.62469 22.4583 9.40966 22.5243C9.25436 22.5683 9.13489 22.6123 8.99154 22.7003C8.86013 22.7773 8.72872 22.8763 8.6212 22.9863C8.43006 23.1732 8.3106 23.4042 8.19114 23.6352C8.04778 23.9102 7.80886 24.4931 8.17919 24.7131C8.44201 24.8671 8.82429 24.8231 9.111 24.7791C9.36187 24.7351 9.6008 24.6581 9.81583 24.5261C9.9114 24.4601 9.99502 24.3941 10.0667 24.3062C10.1145 24.2512 10.2937 24.2072 10.2937 24.1522C10.2101 24.1632 10.1384 24.1742 10.0667 24.1852C10.0309 24.1962 10.007 24.2072 9.97113 24.2182C9.85167 24.2842 9.73221 24.3611 9.61274 24.4161C9.36187 24.5371 9.09905 24.6251 8.81234 24.6581C8.6451 24.6801 8.3106 24.7131 8.17919 24.6031C8.04778 24.4931 8.07168 24.2842 8.08362 24.1412C8.10752 23.9542 8.17919 23.7782 8.27476 23.6132C8.4898 23.2172 8.82429 22.7443 9.32603 22.6233C9.55301 22.5683 9.7561 22.4803 9.97113 22.4143C10.1025 22.3813 10.2339 22.3483 10.3534 22.3043C10.4729 22.2603 10.5684 22.1833 10.664 22.1063C11.0463 21.7984 11.4047 21.4574 11.7631 21.1054C12.4798 20.3905 13.1249 19.6095 13.7103 18.7956C14.2479 18.0367 14.7138 17.2337 15.1677 16.4308C15.3828 16.0568 15.6217 15.6829 15.7889 15.2869C15.9681 14.8689 16.0518 14.396 16.3504 14.033C16.5535 13.78 16.9477 13.659 17.2703 13.571C17.6287 13.4721 17.999 13.4391 18.3813 13.4941C18.7755 13.549 19.1578 13.681 19.5281 13.802C19.9104 13.934 20.1971 13.967 20.3763 14.33C20.5555 14.704 20.7825 15.0669 20.9258 15.4629C21.3917 16.6618 21.117 17.7947 20.9258 19.0156C21.1409 18.8286 21.1887 18.2787 21.2484 18.0147C21.3917 17.3437 21.4276 16.6618 21.2603 15.9908C21.1289 15.3419 20.89 14.7919 20.5674 14.198Z" fill="black"/>
</g>
<defs>
<clipPath id="clip0_1_110">
<rect width="24" height="24" fill="white" transform="translate(8 2)"/>
</clipPath>
</defs>
</svg>
